<svg xmlns="http://www.w3.org/2000/svg" width="157.729" height="148.689" viewBox="0 0 157.729 148.689">
  <g id="Group_45281" data-name="Group 45281" transform="translate(0.001)">
    <path id="Path_32682" data-name="Path 32682" d="M13782.51,3991.054c-14.273-23.646-11.731-55.738,4.539-78.057s44.776-34.474,72.346-32.816c34.2,2.057,67.709,28.012,71.2,62.093,2.039,19.933-6.156,40.22-19.965,54.741C13878.2,4031.108,13809.208,4035.279,13782.51,3991.054Z" transform="translate(-13773.172 -3880.031)" fill="#fff5ec"/>
    <path id="Path_32683" data-name="Path 32683" d="M14482.391,4653.618a10.464,10.464,0,0,1-6.445-17.636,14.837,14.837,0,0,1,12.619-25.387,9.773,9.773,0,0,1,17.273-6.081,7.563,7.563,0,0,1,14.779-2.664,8.042,8.042,0,0,1,14.645-5.51,13.089,13.089,0,0,1,16.572,15.239,10.657,10.657,0,0,1,7.465,19.453,7.924,7.924,0,0,1,1.546,15.591c6.355,5.071,7.049,15.776,1.4,21.625a14.5,14.5,0,0,1-21.971,12.078,8.1,8.1,0,0,1-15.82-2.918,7.034,7.034,0,0,1-13.9-.574c-2.981,2.83-8.336,3.209-11.357.2-2.187-2.18-1.235-5.432-2.988-7.585-2.259-2.782-6.867-2.111-9.749-4.536C14485.429,4664.053,14480.32,4653.4,14482.391,4653.618Z" transform="translate(-14447.225 -4568.129)" fill="#fefefe"/>
    <path id="Path_32684" data-name="Path 32684" d="M14987.739,4780.746a56.566,56.566,0,0,0,13.095,22.325c5.231,5.265,12.791,7.368,7.809,16.706-2.109,3.952-5.943,6.694-9.924,8.747-3.427,1.769-7.177,3.158-11.033,3.053-9.992-.269-11.425-8.458-16.541-14.72-5.441-6.665-13.764-10.762-21.463-14.189-9.234-4.11-18.3-8.021-25.7-15.089-7.174-6.853-11.943-16.385-15.781-25.457.191-1.282,1.188-.881,1.38-2.161l17.119,12.205c-6.674-4.759-12.974-11.543-16.337-19.1-3.114-7-7.57-14.219-7.352-22.13.047-1.7,5.443,1.909,5.592,2.019,2.739,2,5.051,5.93,7.264,8.525l14.493,17c-8.078-10.737-13.492-22.773-18.315-35.315-.891-2.312-1.353-5.619.9-6.645,2.148-.978,4.3,1.273,5.6,3.244l22.181,33.691a64.413,64.413,0,0,1-13.815-20.91c-1.264-3.044-6.448-22.762-.515-20.672,2.906,1.023,7.437,9.747,9.334,12.256q5.544,7.332,10.846,14.847c5.653,8.018,9.881,15.953,19.02,20.354a5.6,5.6,0,0,0,3.7.751c3.6-.911-2.019-19.72-2.673-23.108-.456-2.353-.633-5.359,1.446-6.55,2.263-1.293,5.033.926,6.049,3.326,2.217,5.236,5,9.745,7.416,14.868C14986.457,4759.053,14984.32,4770.086,14987.739,4780.746Z" transform="translate(-14863.848 -4682.893)" fill="#e3b9bf"/>
    <path id="Path_32685" data-name="Path 32685" d="M15311.7,6681.444a3.99,3.99,0,1,1,6.141-1.685c.762-2.071,3.673-2.731,5.574-1.612a6.438,6.438,0,0,1,2.77,5.677,18.976,18.976,0,0,1-1.6,6.386,5.777,5.777,0,0,1-6.283,8.677c.1-.606.2-1.213.294-1.821a5.859,5.859,0,0,1-6.164,4.862,6.032,6.032,0,0,1-5.122-5.786,5.375,5.375,0,0,1-8.212-.31c-1.625-2.216-.52-4.98-.2-7.427.461-3.514.265-7.864,3.8-9.875A6.533,6.533,0,0,1,15311.7,6681.444Z" transform="translate(-15245.377 -6577.479)" fill="#fefefe"/>
    <path id="Path_32686" data-name="Path 32686" d="M16808.4,6049.479a3.991,3.991,0,1,1,6.141-1.686c.762-2.071,3.676-2.731,5.576-1.611a6.439,6.439,0,0,1,2.77,5.677,19.008,19.008,0,0,1-1.6,6.387,5.776,5.776,0,0,1-6.285,8.676c.1-.6.2-1.213.295-1.819a5.859,5.859,0,0,1-6.166,4.861,6.028,6.028,0,0,1-5.119-5.785,5.376,5.376,0,0,1-8.213-.31c-1.625-2.216-.52-4.98-.2-7.427.461-3.514.264-7.864,3.8-9.876A6.532,6.532,0,0,1,16808.4,6049.479Z" transform="translate(-16690.205 -5967.417)" fill="#fefefe"/>
    <path id="Path_32687" data-name="Path 32687" d="M17144.4,4815.645h21.174v-6.155H17144.4Z" transform="translate(-17027.559 -4777.276)" fill="#d8b799"/>
    <path id="Path_32688" data-name="Path 32688" d="M17361,4613.985h6.156V4592.81H17361Z" transform="translate(-17236.65 -4568.106)" fill="#d8b799"/>
    <path id="Path_32689" data-name="Path 32689" d="M14382.6,6983.292h13.666v-3.972H14382.6Z" transform="translate(-14361.478 -6871.902)" fill="#d8b799"/>
    <path id="Path_32690" data-name="Path 32690" d="M14522.5,6853.135h3.973V6839.47h-3.973Z" transform="translate(-14496.529 -6736.9)" fill="#d8b799"/>
  </g>
</svg>
