<svg id="Group_45280" data-name="Group 45280" xmlns="http://www.w3.org/2000/svg" width="152.941" height="149.495" viewBox="0 0 152.941 149.495">
  <path id="Path_32673" data-name="Path 32673" d="M7769.57,3972.77c9.832-25.811,36.678-43.579,64.282-44.512s54.74,14.034,70.418,36.772c19.448,28.205,19.647,70.592-5.051,94.334-14.446,13.887-35.475,19.928-55.419,18C7796.971,4072.824,7751.18,4021.044,7769.57,3972.77Z" transform="translate(-7765.409 -3928.217)" fill="#fff5ec"/>
  <path id="Path_32674" data-name="Path 32674" d="M7984.159,4614.994c-.243-3.011-.456-6.025-.6-9.044q-.7-14.377.023-28.776c.132-2.588.283-8.187,4.013-8.2,1.762-.009,3.09,1.611,3.926,2.982a24.966,24.966,0,0,1,2.32,5.811,55.065,55.065,0,0,1,.505,29.98A25.338,25.338,0,0,1,7984.159,4614.994Zm-82.57,42.245a103.009,103.009,0,0,1-29.919-38.164,99.6,99.6,0,0,1-4.659-12.325c-1.376-4.513-2.833-9.362-2.857-14.108-.022-4.278,1.842-9.4,6.431-10.595,4.708-1.229,9.117,2.588,12.152,5.694a157.058,157.058,0,0,1,18.853,23.717Zm94.565-48.922a57.107,57.107,0,0,0,.247-28.389c-.961-3.859-2.12-8.7-5.282-11.414a5.049,5.049,0,0,0-8.013,1.5,13.2,13.2,0,0,0-1.281,4.893c-.237,2.416-.272,4.867-.354,7.292q-.262,7.876-.093,15.763c.126,5.924.456,11.841.946,17.746-24.933,8.914-69.989-2.682-79.094-5.192A171.614,171.614,0,0,0,7885.5,4587.9c-3.176-3.413-6.982-7.2-11.824-7.877-4.414-.613-8.261,2.083-10.08,6-2.223,4.777-1.229,10.192-.067,15.112a100.733,100.733,0,0,0,4.229,13.519,104.395,104.395,0,0,0,33.834,44.958v.846c15.927,10.435,34.667,19.124,54.132,18.465,19.766-.669,37.359-19.9,39.081-39.2.928-10.4.9-20.967,1.352-31.4Z" transform="translate(-7858.91 -4545.006)" fill="#d8b799"/>
  <path id="Path_32675" data-name="Path 32675" d="M9642.455,6095.494a91.333,91.333,0,0,1-36.076-7.639,1.895,1.895,0,1,1,1.595-3.438c21.251,9.852,58.1,12.224,69.148-9.257a1.9,1.9,0,0,1,3.371,1.734C9673.352,6090.782,9658.063,6095.494,9642.455,6095.494Z" transform="translate(-9544.437 -5998.085)" fill="#fff5ec"/>
  <path id="Path_32676" data-name="Path 32676" d="M9904.744,6791.6a69.509,69.509,0,0,1-24.769-4.886,1.895,1.895,0,1,1,1.353-3.54c23.213,8.868,44.557,4.824,58.555-11.1a1.9,1.9,0,1,1,2.847,2.5A49.239,49.239,0,0,1,9904.744,6791.6Z" transform="translate(-9808.435 -6671.221)" fill="#fff5ec"/>
</svg>
